<svg width="244" height="82" viewBox="0 0 244 82" fill="none" xmlns="http://www.w3.org/2000/svg">
<g clip-path="url(#clip0)">
<path d="M224.569 2.23594e-05H19.4416C18.6939 2.23594e-05 17.9551 2.23595e-05 17.2094 0.00412236C16.5852 0.00822236 15.9659 0.0201329 15.3356 0.0301574C13.9664 0.0463561 12.6005 0.167459 11.2496 0.392413C9.90061 0.622264 8.59389 1.0556 7.37362 1.67776C6.15485 2.30519 5.04121 3.12047 4.07313 4.09402C3.09996 5.06483 2.28875 6.18696 1.67069 7.41725C1.05092 8.6451 0.621175 9.96085 0.396288 11.3191C0.169263 12.6756 0.0470986 14.0477 0.0308915 15.4232C0.0119692 16.0517 0.00997091 16.6823 0 17.3109V64.6951C0.00997091 65.3317 0.0119692 65.9483 0.0308915 66.585C0.0471035 67.9604 0.169268 69.3325 0.396288 70.6889C0.620554 72.0479 1.05033 73.3644 1.67069 74.5928C2.28847 75.8191 3.09979 76.9367 4.07313 77.9021C5.03754 78.8799 6.15189 79.6958 7.37362 80.3184C8.59388 80.9422 9.90046 81.3782 11.2496 81.6115C12.6007 81.8347 13.9665 81.9559 15.3356 81.974C15.9659 81.9879 16.5852 81.9959 17.2094 81.9959C17.9551 82 18.6939 82 19.4416 82H224.569C225.302 82 226.047 82 226.78 81.9959C227.401 81.9959 228.038 81.9879 228.659 81.974C230.026 81.9568 231.389 81.8357 232.738 81.6115C234.091 81.3765 235.402 80.9407 236.628 80.3184C237.849 79.6954 238.962 78.8796 239.926 77.9021C240.897 76.9329 241.71 75.8161 242.335 74.5928C242.951 73.3636 243.377 72.0472 243.598 70.6889C243.825 69.3323 243.952 67.9606 243.976 66.585C243.984 65.9483 243.984 65.3317 243.984 64.6951C244 63.9504 244 63.2097 244 62.4529V19.5491C244 18.7984 244 18.0536 243.984 17.3109C243.984 16.6823 243.984 16.0517 243.976 15.4231C243.952 14.0475 243.825 12.6757 243.598 11.319C243.376 9.96155 242.95 8.6459 242.335 7.41717C241.077 4.95117 239.081 2.94387 236.628 1.67758C235.402 1.05694 234.091 0.623715 232.738 0.392228C231.389 0.166283 230.026 0.0451383 228.659 0.0298704C228.038 0.0198664 227.401 0.00785336 226.78 0.00385586C226.047 -0.000244141 225.302 -0.000244141 224.569 -0.000244141V2.23594e-05Z" fill="#A6A6A6"/>
<path d="M17.2194 80.2062C16.5981 80.2062 15.9919 80.1982 15.3755 80.1843C14.0986 80.1675 12.8247 80.0558 11.5642 79.8499C10.3889 79.6464 9.25034 79.2679 8.18608 78.7267C7.13157 78.1901 6.16977 77.4864 5.33753 76.6427C4.49325 75.8089 3.79034 74.8419 3.25667 73.7799C2.71712 72.711 2.34372 71.5653 2.14947 70.3826C1.93971 69.1118 1.82621 67.8269 1.80997 66.5389C1.79704 66.1065 1.78012 64.667 1.78012 64.667V17.3108C1.78012 17.3108 1.79815 15.8935 1.81007 15.477C1.82562 14.191 1.93846 12.9081 2.1476 11.6393C2.3422 10.4534 2.71589 9.30439 3.25573 8.23199C3.78744 7.17074 4.48645 6.20297 5.32565 5.3662C6.1639 4.52148 7.12878 3.81419 8.18508 3.27013C9.2469 2.73074 10.3833 2.35485 11.5563 2.15505C12.8209 1.94712 14.0992 1.83469 15.3805 1.81873L17.2204 1.7937H226.77L228.632 1.81974C229.901 1.8349 231.168 1.94632 232.421 2.15305C233.606 2.35535 234.754 2.73386 235.828 3.27614C237.944 4.37257 239.666 6.10724 240.752 8.237C241.283 9.30199 241.651 10.4416 241.844 11.6173C242.055 12.8965 242.174 14.1895 242.198 15.4861C242.204 16.0666 242.204 16.6902 242.204 17.3108C242.22 18.0796 242.22 18.8113 242.22 19.549V62.4528C242.22 63.1976 242.22 63.9243 242.204 64.657C242.204 65.3236 242.204 65.9343 242.196 66.5628C242.172 67.8363 242.056 69.1062 241.847 70.3625C241.657 71.5537 241.286 72.7084 240.746 73.786C240.209 74.8365 239.51 75.7952 238.675 76.6267C237.842 77.475 236.879 78.1827 235.822 78.7228C234.751 79.2681 233.604 79.6481 232.421 79.8499C231.161 80.0569 229.887 80.1687 228.61 80.1843C228.012 80.1982 227.387 80.2062 226.78 80.2062L224.569 80.2103L17.2194 80.2062Z" fill="black"/>
<path d="M50.5048 41.6163C50.5267 39.9052 50.9788 38.2275 51.8189 36.7393C52.6591 35.2511 53.86 34.0007 55.3099 33.1045C54.3888 31.782 53.1737 30.6935 51.761 29.9257C50.3482 29.1579 48.7769 28.7318 47.1718 28.6813C43.7477 28.32 40.4283 30.7412 38.6835 30.7412C36.9049 30.7412 34.2184 28.7172 31.3256 28.777C29.4544 28.8378 27.6308 29.3848 26.0324 30.3649C24.4341 31.3449 23.1155 32.7244 22.2051 34.3691C18.2616 41.2334 21.2031 51.3216 24.9806 56.8701C26.8706 59.5871 29.0795 62.622 31.9697 62.5144C34.798 62.3964 35.8543 60.7012 39.2683 60.7012C42.6506 60.7012 43.6416 62.5144 46.5905 62.4459C49.6253 62.3964 51.5375 59.7169 53.3611 56.9742C54.7191 55.0383 55.764 52.8986 56.4573 50.6346C54.6941 49.8848 53.1894 48.6299 52.1309 47.0261C51.0724 45.4224 50.5069 43.5409 50.5048 41.6163Z" fill="white"/>
<path d="M44.9349 25.0322C46.5896 23.0351 47.4048 20.4681 47.2074 17.8765C44.6794 18.1434 42.3441 19.3582 40.667 21.2787C39.847 22.2169 39.219 23.3084 38.8189 24.4908C38.4187 25.6731 38.2543 26.9232 38.335 28.1695C39.5994 28.1826 40.8504 27.9071 41.9936 27.3636C43.1368 26.8202 44.1425 26.0231 44.9349 25.0322Z" fill="white"/>
<path d="M86.2561 55.6362H76.6045L74.2867 62.517H70.1987L79.3405 37.0601H83.5878L92.7297 62.517H88.5719L86.2561 55.6362ZM77.6041 52.4611H85.2546L81.4832 41.2942H81.3776L77.6041 52.4611Z" fill="white"/>
<path d="M112.473 53.238C112.473 59.0056 109.402 62.7112 104.769 62.7112C103.595 62.7729 102.428 62.5011 101.4 61.9268C100.373 61.3525 99.5275 60.499 98.9603 59.464H98.8726V68.657H95.0833V43.9569H98.7512V47.0439H98.8209C99.4142 46.0139 100.274 45.1648 101.309 44.587C102.344 44.0092 103.516 43.7243 104.699 43.7627C109.384 43.7627 112.473 47.4863 112.473 53.238ZM108.578 53.238C108.578 49.4803 106.647 47.0099 103.699 47.0099C100.804 47.0099 98.8567 49.5323 98.8567 53.238C98.8567 56.9776 100.804 59.4821 103.699 59.4821C106.647 59.4821 108.578 57.0297 108.578 53.238Z" fill="white"/>
<path d="M132.792 53.2379C132.792 59.0056 129.721 62.7112 125.088 62.7112C123.914 62.7729 122.746 62.5011 121.719 61.9268C120.692 61.3525 119.846 60.499 119.279 59.464H119.191V68.657H115.402V43.9569H119.07V47.0439H119.14C119.733 46.0138 120.593 45.1647 121.628 44.587C122.663 44.0092 123.834 43.7243 125.018 43.7627C129.703 43.7627 132.792 47.4863 132.792 53.2379ZM128.897 53.2379C128.897 49.4803 126.965 47.0099 124.018 47.0099C121.123 47.0099 119.175 49.5323 119.175 53.2379C119.175 56.9776 121.123 59.482 124.018 59.482C126.965 59.482 128.897 57.0296 128.897 53.2379H128.897Z" fill="white"/>
<path d="M146.221 55.4242C146.501 57.9486 148.941 59.6062 152.274 59.6062C155.468 59.6062 157.766 57.9486 157.766 55.6723C157.766 53.6964 156.38 52.5133 153.098 51.7025L149.817 50.9077C145.167 49.7786 143.009 47.5924 143.009 44.045C143.009 39.6527 146.816 36.6357 152.222 36.6357C157.573 36.6357 161.241 39.6527 161.364 44.045H157.539C157.31 41.5045 155.221 39.971 152.168 39.971C149.116 39.971 147.027 41.5225 147.027 43.7807C147.027 45.5805 148.361 46.6395 151.625 47.4502L154.415 48.1389C159.61 49.3741 161.768 51.4722 161.768 55.1958C161.768 59.9584 157.995 62.9413 151.993 62.9413C146.378 62.9413 142.587 60.0285 142.342 55.424L146.221 55.4242Z" fill="white"/>
<path d="M169.946 39.5647V43.957H173.457V46.9739H169.946V57.2059C169.946 58.7955 170.649 59.5362 172.193 59.5362C172.609 59.5289 173.025 59.4994 173.439 59.448V62.447C172.745 62.5773 172.04 62.6363 171.334 62.6231C167.597 62.6231 166.139 61.2117 166.139 57.6122V46.9739H163.455V43.957H166.139V39.5647H169.946Z" fill="white"/>
<path d="M175.49 53.238C175.49 47.3983 178.911 43.7288 184.246 43.7288C189.598 43.7288 193.003 47.3983 193.003 53.238C193.003 59.0938 189.616 62.7473 184.246 62.7473C178.877 62.7473 175.49 59.0937 175.49 53.238ZM189.142 53.238C189.142 49.2321 187.316 46.8678 184.246 46.8678C181.175 46.8678 179.351 49.2501 179.351 53.238C179.351 57.2599 181.175 59.6063 184.246 59.6063C187.316 59.6063 189.142 57.2599 189.142 53.238H189.142Z" fill="white"/>
<path d="M196.127 43.957H199.742V47.116H199.829C200.074 46.1294 200.649 45.2574 201.457 44.6468C202.266 44.0361 203.259 43.7239 204.27 43.7627C204.706 43.7612 205.142 43.8089 205.568 43.9049V47.4684C205.017 47.299 204.442 47.2212 203.865 47.2382C203.315 47.2157 202.766 47.3133 202.257 47.5242C201.747 47.7351 201.289 48.0544 200.914 48.46C200.539 48.8657 200.256 49.3482 200.083 49.8744C199.911 50.4006 199.854 50.958 199.917 51.5083V62.517H196.127L196.127 43.957Z" fill="white"/>
<path d="M223.039 57.0658C222.529 60.435 219.266 62.7473 215.09 62.7473C209.72 62.7473 206.386 59.1298 206.386 53.3261C206.386 47.5044 209.738 43.7288 214.931 43.7288C220.038 43.7288 223.25 47.2562 223.25 52.8837V54.189H210.212V54.4192C210.151 55.1022 210.236 55.7904 210.461 56.4378C210.686 57.0853 211.045 57.6773 211.515 58.1745C211.984 58.6718 212.554 59.0628 213.185 59.3217C213.817 59.5807 214.496 59.7015 215.178 59.6763C216.073 59.7607 216.972 59.5521 217.74 59.0818C218.508 58.6114 219.105 57.9044 219.441 57.0658L223.039 57.0658ZM210.229 51.5264H219.459C219.493 50.9122 219.4 50.2976 219.187 49.7211C218.973 49.1446 218.644 48.6187 218.219 48.1764C217.793 47.7341 217.282 47.3849 216.716 47.1507C216.15 46.9166 215.543 46.8026 214.931 46.8158C214.314 46.8121 213.702 46.9313 213.131 47.1665C212.56 47.4017 212.041 47.7483 211.604 48.1862C211.167 48.6242 210.82 49.1448 210.584 49.7181C210.349 50.2914 210.228 50.906 210.229 51.5264V51.5264Z" fill="white"/>
<path d="M77.1292 17.8979C77.9236 17.8406 78.7208 17.9613 79.4632 18.2512C80.2057 18.5411 80.8749 18.9931 81.4225 19.5746C81.9702 20.156 82.3827 20.8524 82.6302 21.6135C82.8778 22.3746 82.9542 23.1814 82.854 23.9758C82.854 27.8837 80.7533 30.1299 77.1292 30.1299H72.7345V17.8979H77.1292ZM74.6242 28.4001H76.9181C77.4858 28.4342 78.0539 28.3406 78.5811 28.1261C79.1082 27.9117 79.5812 27.5817 79.9655 27.1603C80.3499 26.7389 80.6359 26.2367 80.8029 25.6901C80.9698 25.1435 81.0134 24.5664 80.9305 24.0008C81.0074 23.4374 80.9593 22.8638 80.7899 22.3213C80.6204 21.7787 80.3336 21.2805 79.9502 20.8625C79.5667 20.4444 79.096 20.1168 78.5718 19.9031C78.0476 19.6895 77.4829 19.595 76.9181 19.6265H74.6242V28.4001Z" fill="white"/>
<path d="M84.9886 25.5103C84.9309 24.9036 84.9999 24.2916 85.1913 23.7133C85.3826 23.1351 85.6921 22.6034 86.0997 22.1525C86.5074 21.7015 87.0044 21.3412 87.5587 21.0946C88.113 20.8481 88.7125 20.7207 89.3186 20.7207C89.9247 20.7207 90.5242 20.8481 91.0785 21.0946C91.6328 21.3412 92.1298 21.7015 92.5375 22.1525C92.9451 22.6034 93.2546 23.1351 93.4459 23.7133C93.6373 24.2916 93.7063 24.9036 93.6486 25.5103C93.7074 26.1175 93.6392 26.7304 93.4484 27.3096C93.2575 27.8888 92.9483 28.4214 92.5405 28.8733C92.1327 29.3251 91.6354 29.6862 91.0805 29.9333C90.5256 30.1804 89.9255 30.308 89.3186 30.308C88.7117 30.308 88.1116 30.1804 87.5567 29.9333C87.0018 29.6862 86.5045 29.3251 86.0967 28.8733C85.6889 28.4214 85.3797 27.8888 85.1888 27.3096C84.998 26.7304 84.9298 26.1175 84.9886 25.5103V25.5103ZM91.7848 25.5103C91.7848 23.5093 90.8907 22.3392 89.3216 22.3392C87.7465 22.3392 86.8605 23.5093 86.8605 25.5103C86.8605 27.5273 87.7466 28.6884 89.3216 28.6884C90.8907 28.6884 91.7848 27.5192 91.7848 25.5103H91.7848Z" fill="white"/>
<path d="M105.16 30.1299H103.28L101.383 23.3313H101.239L99.3496 30.1299H97.4877L94.9568 20.8989H96.7948L98.4396 27.9427H98.575L100.463 20.8989H102.201L104.089 27.9427H104.232L105.869 20.8989H107.681L105.16 30.1299Z" fill="white"/>
<path d="M109.81 20.8989H111.554V22.3654H111.689C111.919 21.8387 112.306 21.3972 112.798 21.1024C113.289 20.8076 113.859 20.6742 114.429 20.7208C114.876 20.687 115.325 20.7547 115.742 20.9189C116.159 21.0831 116.534 21.3396 116.839 21.6693C117.145 21.999 117.372 22.3936 117.505 22.8237C117.638 23.2538 117.673 23.7085 117.607 24.1541V30.1298H115.795V24.6116C115.795 23.1281 115.154 22.3904 113.814 22.3904C113.511 22.3762 113.208 22.4281 112.926 22.5426C112.645 22.657 112.391 22.8313 112.183 23.0535C111.975 23.2757 111.817 23.5405 111.72 23.8298C111.623 24.1191 111.59 24.4261 111.622 24.7297V30.13H109.81L109.81 20.8989Z" fill="white"/>
<path d="M120.495 17.2954H122.307V30.1299H120.495V17.2954Z" fill="white"/>
<path d="M124.826 25.5104C124.768 24.9038 124.837 24.2917 125.028 23.7134C125.22 23.1351 125.529 22.6035 125.937 22.1525C126.345 21.7015 126.842 21.3412 127.396 21.0946C127.95 20.8481 128.55 20.7207 129.156 20.7207C129.762 20.7207 130.362 20.8481 130.916 21.0946C131.47 21.3412 131.967 21.7015 132.375 22.1525C132.783 22.6035 133.092 23.1351 133.284 23.7134C133.475 24.2917 133.544 24.9038 133.487 25.5104C133.545 26.1177 133.477 26.7306 133.286 27.3098C133.095 27.889 132.786 28.4216 132.378 28.8734C131.97 29.3253 131.473 29.6863 130.918 29.9334C130.363 30.1805 129.763 30.3082 129.156 30.3082C128.549 30.3082 127.949 30.1805 127.394 29.9334C126.839 29.6863 126.342 29.3253 125.934 28.8734C125.526 28.4216 125.217 27.889 125.026 27.3098C124.835 26.7306 124.767 26.1177 124.826 25.5104V25.5104ZM131.622 25.5104C131.622 23.5095 130.728 22.3394 129.159 22.3394C127.583 22.3394 126.697 23.5095 126.697 25.5105C126.697 27.5274 127.584 28.6886 129.159 28.6886C130.728 28.6885 131.622 27.5194 131.622 25.5104H131.622Z" fill="white"/>
<path d="M135.394 27.5193C135.394 25.8577 136.625 24.8998 138.809 24.7636L141.296 24.6195V23.8227C141.296 22.8478 140.655 22.2972 139.417 22.2972C138.405 22.2972 137.704 22.6706 137.503 23.3232H135.749C135.934 21.7377 137.417 20.7207 139.5 20.7207C141.802 20.7207 143.1 21.8728 143.1 23.8227V30.1299H141.356V28.8326H141.213C140.922 29.2979 140.513 29.6773 140.028 29.9319C139.544 30.1866 139.001 30.3073 138.455 30.282C138.069 30.3223 137.68 30.2809 137.311 30.1606C136.943 30.0403 136.603 29.8436 136.315 29.5833C136.026 29.323 135.796 29.0049 135.637 28.6494C135.478 28.2939 135.396 27.9089 135.394 27.5193V27.5193ZM141.296 26.7305V25.9588L139.054 26.1029C137.79 26.188 137.216 26.6204 137.216 27.4342C137.216 28.265 137.933 28.7485 138.919 28.7485C139.208 28.7779 139.499 28.7486 139.777 28.6623C140.054 28.576 140.311 28.4345 140.533 28.2462C140.755 28.058 140.937 27.8268 141.068 27.5664C141.199 27.306 141.277 27.0217 141.296 26.7305V26.7305Z" fill="white"/>
<path d="M145.482 25.5105C145.482 22.5936 146.973 20.7458 149.293 20.7458C149.867 20.7192 150.436 20.8574 150.935 21.1442C151.434 21.431 151.841 21.8545 152.109 22.3653H152.244V17.2954H154.056V30.1299H152.32V28.6715H152.176C151.888 29.1789 151.466 29.5971 150.958 29.881C150.45 30.1649 149.874 30.3036 149.293 30.2821C146.957 30.2822 145.482 28.4343 145.482 25.5105ZM147.354 25.5105C147.354 27.4684 148.272 28.6465 149.807 28.6465C151.334 28.6465 152.278 27.4514 152.278 25.5185C152.278 23.5946 151.324 22.3824 149.807 22.3824C148.282 22.3824 147.354 23.5686 147.354 25.5105H147.354Z" fill="white"/>
<path d="M161.553 25.5103C161.496 24.9036 161.565 24.2916 161.756 23.7133C161.947 23.1351 162.257 22.6034 162.664 22.1525C163.072 21.7015 163.569 21.3412 164.123 21.0946C164.678 20.8481 165.277 20.7207 165.883 20.7207C166.489 20.7207 167.089 20.8481 167.643 21.0946C168.197 21.3412 168.694 21.7015 169.102 22.1525C169.51 22.6034 169.819 23.1351 170.011 23.7133C170.202 24.2916 170.271 24.9036 170.213 25.5103C170.272 26.1175 170.204 26.7304 170.013 27.3096C169.822 27.8888 169.513 28.4214 169.105 28.8733C168.697 29.3251 168.2 29.6862 167.645 29.9333C167.09 30.1804 166.49 30.308 165.883 30.308C165.276 30.308 164.676 30.1804 164.121 29.9333C163.566 29.6862 163.069 29.3251 162.661 28.8733C162.254 28.4214 161.944 27.8888 161.753 27.3096C161.563 26.7304 161.494 26.1175 161.553 25.5103V25.5103ZM168.349 25.5103C168.349 23.5093 167.455 22.3392 165.886 22.3392C164.311 22.3392 163.425 23.5093 163.425 25.5103C163.425 27.5273 164.311 28.6884 165.886 28.6884C167.455 28.6884 168.349 27.5192 168.349 25.5103Z" fill="white"/>
<path d="M172.645 20.8989H174.389V22.3654H174.524C174.754 21.8387 175.141 21.3972 175.633 21.1024C176.124 20.8076 176.694 20.6742 177.264 20.7208C177.711 20.687 178.16 20.7547 178.577 20.9189C178.994 21.0831 179.369 21.3396 179.674 21.6693C179.979 21.999 180.207 22.3936 180.34 22.8237C180.473 23.2538 180.508 23.7085 180.442 24.1541V30.1298H178.63V24.6116C178.63 23.1281 177.989 22.3904 176.649 22.3904C176.346 22.3762 176.043 22.4281 175.761 22.5426C175.48 22.657 175.226 22.8313 175.018 23.0535C174.81 23.2757 174.652 23.5405 174.555 23.8298C174.458 24.1191 174.424 24.4261 174.457 24.7297V30.13H172.645V20.8989Z" fill="white"/>
<path d="M190.681 18.6006V20.9409H192.671V22.4754H190.681V27.222C190.681 28.1889 191.078 28.6124 191.98 28.6124C192.211 28.6116 192.441 28.5976 192.671 28.5703V30.0878C192.345 30.1463 192.015 30.1774 191.685 30.1809C189.67 30.1809 188.867 29.4682 188.867 27.6884V22.4753H187.41V20.9408H188.867V18.6006H190.681Z" fill="white"/>
<path d="M195.146 17.2954H196.942V22.3824H197.085C197.326 21.8508 197.724 21.4068 198.225 21.1109C198.726 20.8149 199.306 20.6815 199.885 20.7288C200.329 20.7045 200.773 20.7791 201.186 20.9472C201.598 21.1154 201.969 21.3731 202.271 21.7017C202.573 22.0304 202.799 22.4221 202.933 22.8488C203.067 23.2754 203.106 23.7266 203.047 24.1701V30.1299H201.233V24.6195C201.233 23.1451 200.55 22.3984 199.27 22.3984C198.958 22.3727 198.645 22.4157 198.352 22.5245C198.059 22.6333 197.793 22.8051 197.572 23.028C197.352 23.2509 197.183 23.5195 197.077 23.815C196.971 24.1105 196.93 24.4257 196.958 24.7387V30.1299H195.146L195.146 17.2954Z" fill="white"/>
<path d="M213.613 27.6376C213.366 28.4813 212.833 29.211 212.106 29.6992C211.378 30.1874 210.503 30.403 209.634 30.3082C209.029 30.3242 208.428 30.2078 207.872 29.9668C207.317 29.7259 206.82 29.3663 206.416 28.913C206.013 28.4596 205.712 27.9234 205.535 27.3416C205.359 26.7598 205.31 26.1462 205.393 25.5436C205.312 24.939 205.362 24.3242 205.538 23.7406C205.714 23.157 206.013 22.6184 206.415 22.1611C206.816 21.7038 207.311 21.3385 207.865 21.09C208.419 20.8416 209.019 20.7157 209.626 20.7209C212.181 20.7209 213.722 22.4757 213.722 25.3744V26.01H207.239V26.1121C207.21 26.4509 207.253 26.7919 207.363 27.1132C207.473 27.4345 207.649 27.7291 207.879 27.9781C208.11 28.2271 208.389 28.425 208.7 28.559C209.011 28.6931 209.346 28.7604 209.684 28.7566C210.117 28.8089 210.556 28.7305 210.945 28.5312C211.334 28.3319 211.656 28.0209 211.868 27.6375L213.613 27.6376ZM207.238 24.6627H211.876C211.899 24.3529 211.857 24.0417 211.753 23.7491C211.649 23.4566 211.486 23.1891 211.273 22.9639C211.06 22.7387 210.803 22.5607 210.517 22.4414C210.232 22.3222 209.925 22.2643 209.616 22.2714C209.303 22.2674 208.992 22.3266 208.701 22.4454C208.411 22.5641 208.147 22.7402 207.926 22.963C207.704 23.1859 207.529 23.4511 207.411 23.743C207.293 24.0349 207.234 24.3476 207.239 24.6627H207.238Z" fill="white"/>
</g>
<defs>
<clipPath id="clip0">
<rect width="244" height="82" fill="white"/>
</clipPath>
</defs>
</svg>
