<svg width="23" height="23" viewBox="0 0 23 23" fill="none" xmlns="http://www.w3.org/2000/svg">
<path d="M11.5 2.15625C6.348 2.15625 2.15625 6.348 2.15625 11.5C2.15625 16.652 6.348 20.8438 11.5 20.8438C16.652 20.8438 20.8438 16.652 20.8438 11.5C20.8438 6.348 16.652 2.15625 11.5 2.15625ZM11.5 3.59375C15.875 3.59375 19.4062 7.12497 19.4062 11.5C19.4062 15.875 15.875 19.4062 11.5 19.4062C7.12497 19.4062 3.59375 15.875 3.59375 11.5C3.59375 7.12497 7.12497 3.59375 11.5 3.59375ZM11.4324 7.1875C9.04331 7.1875 7.11994 9.11088 7.11994 11.5C7.11994 13.8891 9.04331 15.8125 11.4324 15.8125C13.1574 15.8125 14.6309 14.7775 15.318 13.3184L14.0156 12.7125C13.552 13.6979 12.5824 14.375 11.4324 14.375C9.79656 14.375 8.55744 13.1359 8.55744 11.5C8.55744 9.86412 9.79656 8.625 11.4324 8.625C12.5824 8.625 13.5528 9.30206 14.0156 10.2875L15.3187 9.68084C14.6316 8.22178 13.1574 7.18678 11.4324 7.18678V7.1875Z" fill="#FFC7AB"/>
</svg>
