<svg width="244" height="24" viewBox="0 0 244 24" fill="none" xmlns="http://www.w3.org/2000/svg">
<path d="M19.7328 23L19.7028 10.4L13.5228 20.78H11.3328L5.18281 10.67V23H0.622813V2H4.64281L12.5028 15.05L20.2428 2H24.2328L24.2928 23H19.7328ZM44.7552 14.99C44.7552 15.05 44.7252 15.47 44.6652 16.25H32.4552C32.6752 17.25 33.1952 18.04 34.0152 18.62C34.8352 19.2 35.8552 19.49 37.0752 19.49C37.9152 19.49 38.6552 19.37 39.2952 19.13C39.9552 18.87 40.5652 18.47 41.1252 17.93L43.6152 20.63C42.0952 22.37 39.8752 23.24 36.9552 23.24C35.1352 23.24 33.5252 22.89 32.1252 22.19C30.7252 21.47 29.6452 20.48 28.8852 19.22C28.1252 17.96 27.7452 16.53 27.7452 14.93C27.7452 13.35 28.1152 11.93 28.8552 10.67C29.6152 9.39 30.6452 8.4 31.9452 7.7C33.2652 6.98 34.7352 6.62 36.3552 6.62C37.9352 6.62 39.3652 6.96 40.6452 7.64C41.9252 8.32 42.9252 9.3 43.6452 10.58C44.3852 11.84 44.7552 13.31 44.7552 14.99ZM36.3852 10.16C35.3252 10.16 34.4352 10.46 33.7152 11.06C32.9952 11.66 32.5552 12.48 32.3952 13.52H40.3452C40.1852 12.5 39.7452 11.69 39.0252 11.09C38.3052 10.47 37.4252 10.16 36.3852 10.16ZM64.3109 0.739999V23H59.8409V21.14C58.6809 22.54 57.0009 23.24 54.8009 23.24C53.2809 23.24 51.9009 22.9 50.6609 22.22C49.4409 21.54 48.4809 20.57 47.7809 19.31C47.0809 18.05 46.7309 16.59 46.7309 14.93C46.7309 13.27 47.0809 11.81 47.7809 10.55C48.4809 9.29 49.4409 8.32 50.6609 7.64C51.9009 6.96 53.2809 6.62 54.8009 6.62C56.8609 6.62 58.4709 7.27 59.6309 8.57V0.739999H64.3109ZM55.6109 19.4C56.7909 19.4 57.7709 19 58.5509 18.2C59.3309 17.38 59.7209 16.29 59.7209 14.93C59.7209 13.57 59.3309 12.49 58.5509 11.69C57.7709 10.87 56.7909 10.46 55.6109 10.46C54.4109 10.46 53.4209 10.87 52.6409 11.69C51.8609 12.49 51.4709 13.57 51.4709 14.93C51.4709 16.29 51.8609 17.38 52.6409 18.2C53.4209 19 54.4109 19.4 55.6109 19.4ZM73.3224 5.96H66.6024V2H84.9024V5.96H78.1824V23H73.3224V5.96ZM101.357 14.99C101.357 15.05 101.327 15.47 101.267 16.25H89.0567C89.2767 17.25 89.7967 18.04 90.6167 18.62C91.4367 19.2 92.4567 19.49 93.6767 19.49C94.5167 19.49 95.2567 19.37 95.8967 19.13C96.5567 18.87 97.1667 18.47 97.7267 17.93L100.217 20.63C98.6967 22.37 96.4767 23.24 93.5567 23.24C91.7367 23.24 90.1267 22.89 88.7267 22.19C87.3267 21.47 86.2467 20.48 85.4867 19.22C84.7267 17.96 84.3467 16.53 84.3467 14.93C84.3467 13.35 84.7167 11.93 85.4567 10.67C86.2167 9.39 87.2467 8.4 88.5467 7.7C89.8667 6.98 91.3367 6.62 92.9567 6.62C94.5367 6.62 95.9667 6.96 97.2467 7.64C98.5267 8.32 99.5267 9.3 100.247 10.58C100.987 11.84 101.357 13.31 101.357 14.99ZM92.9867 10.16C91.9267 10.16 91.0367 10.46 90.3167 11.06C89.5967 11.66 89.1567 12.48 88.9967 13.52H96.9467C96.7867 12.5 96.3467 11.69 95.6267 11.09C94.9067 10.47 94.0267 10.16 92.9867 10.16ZM112.273 23.24C110.553 23.24 109.003 22.89 107.623 22.19C106.263 21.47 105.193 20.48 104.413 19.22C103.653 17.96 103.273 16.53 103.273 14.93C103.273 13.33 103.653 11.9 104.413 10.64C105.193 9.38 106.263 8.4 107.623 7.7C109.003 6.98 110.553 6.62 112.273 6.62C113.973 6.62 115.453 6.98 116.713 7.7C117.993 8.4 118.923 9.41 119.503 10.73L115.873 12.68C115.033 11.2 113.823 10.46 112.243 10.46C111.023 10.46 110.013 10.86 109.213 11.66C108.413 12.46 108.013 13.55 108.013 14.93C108.013 16.31 108.413 17.4 109.213 18.2C110.013 19 111.023 19.4 112.243 19.4C113.843 19.4 115.053 18.66 115.873 17.18L119.503 19.16C118.923 20.44 117.993 21.44 116.713 22.16C115.453 22.88 113.973 23.24 112.273 23.24ZM131.89 6.62C133.89 6.62 135.5 7.22 136.72 8.42C137.96 9.62 138.58 11.4 138.58 13.76V23H133.9V14.48C133.9 13.2 133.62 12.25 133.06 11.63C132.5 10.99 131.69 10.67 130.63 10.67C129.45 10.67 128.51 11.04 127.81 11.78C127.11 12.5 126.76 13.58 126.76 15.02V23H122.08V0.739999H126.76V8.54C127.38 7.92 128.13 7.45 129.01 7.13C129.89 6.79 130.85 6.62 131.89 6.62ZM162.412 2V23H157.552V14.39H148.012V23H143.152V2H148.012V10.28H157.552V2H162.412ZM182.861 14.99C182.861 15.05 182.831 15.47 182.771 16.25H170.561C170.781 17.25 171.301 18.04 172.121 18.62C172.941 19.2 173.961 19.49 175.181 19.49C176.021 19.49 176.761 19.37 177.401 19.13C178.061 18.87 178.671 18.47 179.231 17.93L181.721 20.63C180.201 22.37 177.981 23.24 175.061 23.24C173.241 23.24 171.631 22.89 170.231 22.19C168.831 21.47 167.751 20.48 166.991 19.22C166.231 17.96 165.851 16.53 165.851 14.93C165.851 13.35 166.221 11.93 166.961 10.67C167.721 9.39 168.751 8.4 170.051 7.7C171.371 6.98 172.841 6.62 174.461 6.62C176.041 6.62 177.471 6.96 178.751 7.64C180.031 8.32 181.031 9.3 181.751 10.58C182.491 11.84 182.861 13.31 182.861 14.99ZM174.491 10.16C173.431 10.16 172.541 10.46 171.821 11.06C171.101 11.66 170.661 12.48 170.501 13.52H178.451C178.291 12.5 177.851 11.69 177.131 11.09C176.411 10.47 175.531 10.16 174.491 10.16ZM192.047 6.62C194.547 6.62 196.467 7.22 197.807 8.42C199.147 9.6 199.817 11.39 199.817 13.79V23H195.437V20.99C194.557 22.49 192.917 23.24 190.517 23.24C189.277 23.24 188.197 23.03 187.277 22.61C186.377 22.19 185.687 21.61 185.207 20.87C184.727 20.13 184.487 19.29 184.487 18.35C184.487 16.85 185.047 15.67 186.167 14.81C187.307 13.95 189.057 13.52 191.417 13.52H195.137C195.137 12.5 194.827 11.72 194.207 11.18C193.587 10.62 192.657 10.34 191.417 10.34C190.557 10.34 189.707 10.48 188.867 10.76C188.047 11.02 187.347 11.38 186.767 11.84L185.087 8.57C185.967 7.95 187.017 7.47 188.237 7.13C189.477 6.79 190.747 6.62 192.047 6.62ZM191.687 20.09C192.487 20.09 193.197 19.91 193.817 19.55C194.437 19.17 194.877 18.62 195.137 17.9V16.25H191.927C190.007 16.25 189.047 16.88 189.047 18.14C189.047 18.74 189.277 19.22 189.737 19.58C190.217 19.92 190.867 20.09 191.687 20.09ZM204.053 0.739999H208.733V23H204.053V0.739999ZM224.658 22.22C224.198 22.56 223.628 22.82 222.948 23C222.288 23.16 221.588 23.24 220.848 23.24C218.928 23.24 217.438 22.75 216.378 21.77C215.338 20.79 214.818 19.35 214.818 17.45V10.82H212.328V7.22H214.818V3.29H219.498V7.22H223.518V10.82H219.498V17.39C219.498 18.07 219.668 18.6 220.008 18.98C220.368 19.34 220.868 19.52 221.508 19.52C222.248 19.52 222.878 19.32 223.398 18.92L224.658 22.22ZM237.095 6.62C239.095 6.62 240.705 7.22 241.925 8.42C243.165 9.62 243.785 11.4 243.785 13.76V23H239.105V14.48C239.105 13.2 238.825 12.25 238.265 11.63C237.705 10.99 236.895 10.67 235.835 10.67C234.655 10.67 233.715 11.04 233.015 11.78C232.315 12.5 231.965 13.58 231.965 15.02V23H227.285V0.739999H231.965V8.54C232.585 7.92 233.335 7.45 234.215 7.13C235.095 6.79 236.055 6.62 237.095 6.62Z" fill="#FFC7AB"/>
</svg>
