<svg width="325" height="31" viewBox="0 0 325 31" fill="none" xmlns="http://www.w3.org/2000/svg">
<path d="M26.1438 30L26.1038 13.2L17.8638 27.04H14.9438L6.74375 13.56V30H0.66375V2H6.02375L16.5038 19.4L26.8238 2H32.1438L32.2238 30H26.1438ZM59.5069 19.32C59.5069 19.4 59.4669 19.96 59.3869 21H43.1069C43.4002 22.3333 44.0935 23.3867 45.1869 24.16C46.2802 24.9333 47.6402 25.32 49.2669 25.32C50.3869 25.32 51.3735 25.16 52.2269 24.84C53.1069 24.4933 53.9202 23.96 54.6669 23.24L57.9869 26.84C55.9602 29.16 53.0002 30.32 49.1069 30.32C46.6802 30.32 44.5335 29.8533 42.6669 28.92C40.8002 27.96 39.3602 26.64 38.3469 24.96C37.3335 23.28 36.8269 21.3733 36.8269 19.24C36.8269 17.1333 37.3202 15.24 38.3069 13.56C39.3202 11.8533 40.6935 10.5333 42.4269 9.6C44.1869 8.64 46.1469 8.16 48.3069 8.16C50.4135 8.16 52.3202 8.61333 54.0269 9.52C55.7335 10.4267 57.0669 11.7333 58.0269 13.44C59.0135 15.12 59.5069 17.08 59.5069 19.32ZM48.3469 12.88C46.9335 12.88 45.7469 13.28 44.7869 14.08C43.8269 14.88 43.2402 15.9733 43.0269 17.36H53.6269C53.4135 16 52.8269 14.92 51.8669 14.12C50.9069 13.2933 49.7335 12.88 48.3469 12.88ZM85.5813 0.319998V30H79.6213V27.52C78.0746 29.3867 75.8346 30.32 72.9013 30.32C70.8746 30.32 69.0346 29.8667 67.3813 28.96C65.7546 28.0533 64.4746 26.76 63.5413 25.08C62.6079 23.4 62.1413 21.4533 62.1413 19.24C62.1413 17.0267 62.6079 15.08 63.5413 13.4C64.4746 11.72 65.7546 10.4267 67.3813 9.52C69.0346 8.61333 70.8746 8.16 72.9013 8.16C75.6479 8.16 77.7946 9.02667 79.3413 10.76V0.319998H85.5813ZM73.9813 25.2C75.5546 25.2 76.8613 24.6667 77.9013 23.6C78.9413 22.5067 79.4613 21.0533 79.4613 19.24C79.4613 17.4267 78.9413 15.9867 77.9013 14.92C76.8613 13.8267 75.5546 13.28 73.9813 13.28C72.3813 13.28 71.0613 13.8267 70.0213 14.92C68.9813 15.9867 68.4613 17.4267 68.4613 19.24C68.4613 21.0533 68.9813 22.5067 70.0213 23.6C71.0613 24.6667 72.3813 25.2 73.9813 25.2ZM97.5966 7.28H88.6366V2H113.037V7.28H104.077V30H97.5966V7.28ZM134.976 19.32C134.976 19.4 134.936 19.96 134.856 21H118.576C118.869 22.3333 119.562 23.3867 120.656 24.16C121.749 24.9333 123.109 25.32 124.736 25.32C125.856 25.32 126.842 25.16 127.696 24.84C128.576 24.4933 129.389 23.96 130.136 23.24L133.456 26.84C131.429 29.16 128.469 30.32 124.576 30.32C122.149 30.32 120.002 29.8533 118.136 28.92C116.269 27.96 114.829 26.64 113.816 24.96C112.802 23.28 112.296 21.3733 112.296 19.24C112.296 17.1333 112.789 15.24 113.776 13.56C114.789 11.8533 116.162 10.5333 117.896 9.6C119.656 8.64 121.616 8.16 123.776 8.16C125.882 8.16 127.789 8.61333 129.496 9.52C131.202 10.4267 132.536 11.7333 133.496 13.44C134.482 15.12 134.976 17.08 134.976 19.32ZM123.816 12.88C122.402 12.88 121.216 13.28 120.256 14.08C119.296 14.88 118.709 15.9733 118.496 17.36H129.096C128.882 16 128.296 14.92 127.336 14.12C126.376 13.2933 125.202 12.88 123.816 12.88ZM149.53 30.32C147.237 30.32 145.17 29.8533 143.33 28.92C141.517 27.96 140.09 26.64 139.05 24.96C138.037 23.28 137.53 21.3733 137.53 19.24C137.53 17.1067 138.037 15.2 139.05 13.52C140.09 11.84 141.517 10.5333 143.33 9.6C145.17 8.64 147.237 8.16 149.53 8.16C151.797 8.16 153.77 8.64 155.45 9.6C157.157 10.5333 158.397 11.88 159.17 13.64L154.33 16.24C153.21 14.2667 151.597 13.28 149.49 13.28C147.863 13.28 146.517 13.8133 145.45 14.88C144.383 15.9467 143.85 17.4 143.85 19.24C143.85 21.08 144.383 22.5333 145.45 23.6C146.517 24.6667 147.863 25.2 149.49 25.2C151.623 25.2 153.237 24.2133 154.33 22.24L159.17 24.88C158.397 26.5867 157.157 27.92 155.45 28.88C153.77 29.84 151.797 30.32 149.53 30.32ZM175.687 8.16C178.353 8.16 180.5 8.96 182.127 10.56C183.78 12.16 184.607 14.5333 184.607 17.68V30H178.367V18.64C178.367 16.9333 177.993 15.6667 177.247 14.84C176.5 13.9867 175.42 13.56 174.007 13.56C172.433 13.56 171.18 14.0533 170.247 15.04C169.313 16 168.847 17.44 168.847 19.36V30H162.607V0.319998H168.847V10.72C169.673 9.89333 170.673 9.26667 171.847 8.84C173.02 8.38667 174.3 8.16 175.687 8.16ZM216.383 2V30H209.903V18.52H197.183V30H190.703V2H197.183V13.04H209.903V2H216.383ZM243.648 19.32C243.648 19.4 243.608 19.96 243.528 21H227.248C227.541 22.3333 228.234 23.3867 229.328 24.16C230.421 24.9333 231.781 25.32 233.408 25.32C234.528 25.32 235.514 25.16 236.368 24.84C237.248 24.4933 238.061 23.96 238.808 23.24L242.128 26.84C240.101 29.16 237.141 30.32 233.248 30.32C230.821 30.32 228.674 29.8533 226.808 28.92C224.941 27.96 223.501 26.64 222.488 24.96C221.474 23.28 220.968 21.3733 220.968 19.24C220.968 17.1333 221.461 15.24 222.448 13.56C223.461 11.8533 224.834 10.5333 226.568 9.6C228.328 8.64 230.288 8.16 232.448 8.16C234.554 8.16 236.461 8.61333 238.168 9.52C239.874 10.4267 241.208 11.7333 242.168 13.44C243.154 15.12 243.648 17.08 243.648 19.32ZM232.488 12.88C231.074 12.88 229.888 13.28 228.928 14.08C227.968 14.88 227.381 15.9733 227.168 17.36H237.768C237.554 16 236.968 14.92 236.008 14.12C235.048 13.2933 233.874 12.88 232.488 12.88ZM255.896 8.16C259.229 8.16 261.789 8.96 263.576 10.56C265.363 12.1333 266.256 14.52 266.256 17.72V30H260.416V27.32C259.243 29.32 257.056 30.32 253.856 30.32C252.203 30.32 250.763 30.04 249.536 29.48C248.336 28.92 247.416 28.1467 246.776 27.16C246.136 26.1733 245.816 25.0533 245.816 23.8C245.816 21.8 246.563 20.2267 248.056 19.08C249.576 17.9333 251.909 17.36 255.056 17.36H260.016C260.016 16 259.603 14.96 258.776 14.24C257.949 13.4933 256.709 13.12 255.056 13.12C253.909 13.12 252.776 13.3067 251.656 13.68C250.563 14.0267 249.629 14.5067 248.856 15.12L246.616 10.76C247.789 9.93333 249.189 9.29333 250.816 8.84C252.469 8.38667 254.163 8.16 255.896 8.16ZM255.416 26.12C256.483 26.12 257.429 25.88 258.256 25.4C259.083 24.8933 259.669 24.16 260.016 23.2V21H255.736C253.176 21 251.896 21.84 251.896 23.52C251.896 24.32 252.203 24.96 252.816 25.44C253.456 25.8933 254.323 26.12 255.416 26.12ZM271.903 0.319998H278.143V30H271.903V0.319998ZM299.377 28.96C298.764 29.4133 298.004 29.76 297.097 30C296.217 30.2133 295.284 30.32 294.297 30.32C291.737 30.32 289.751 29.6667 288.337 28.36C286.951 27.0533 286.257 25.1333 286.257 22.6V13.76H282.937V8.96H286.257V3.72H292.497V8.96H297.857V13.76H292.497V22.52C292.497 23.4267 292.724 24.1333 293.177 24.64C293.657 25.12 294.324 25.36 295.177 25.36C296.164 25.36 297.004 25.0933 297.697 24.56L299.377 28.96ZM315.96 8.16C318.627 8.16 320.773 8.96 322.4 10.56C324.053 12.16 324.88 14.5333 324.88 17.68V30H318.64V18.64C318.64 16.9333 318.267 15.6667 317.52 14.84C316.773 13.9867 315.693 13.56 314.28 13.56C312.707 13.56 311.453 14.0533 310.52 15.04C309.587 16 309.12 17.44 309.12 19.36V30H302.88V0.319998H309.12V10.72C309.947 9.89333 310.947 9.26667 312.12 8.84C313.293 8.38667 314.573 8.16 315.96 8.16Z" fill="#11052C"/>
</svg>
