<svg width="244" height="72" viewBox="0 0 244 72" fill="none" xmlns="http://www.w3.org/2000/svg">
<path fill-rule="evenodd" clip-rule="evenodd" d="M234.96 72H9.04036C4.05784 72 0 67.9421 0 63V9C0 4.0399 4.05784 0 9.04036 0H234.96C239.938 0 244 4.0399 244 9V63C244 67.9421 239.938 72 234.96 72Z" fill="black"/>
<path fill-rule="evenodd" clip-rule="evenodd" d="M234.96 1.4409C239.139 1.4409 242.559 4.8389 242.559 9V63C242.559 67.1611 239.161 70.5591 234.96 70.5591H9.04036C4.86133 70.5591 1.44089 67.1611 1.44089 63V9C1.44089 4.8389 4.83888 1.4409 9.04036 1.4409C9.04036 1.4409 234.96 1.4409 234.96 1.4409ZM234.96 0H9.04036C4.05784 0 0 4.05786 0 9V63C0 67.9601 4.05784 72 9.04036 72H234.96C239.938 72 244 67.9601 244 63V9C244 4.05786 239.938 0 234.96 0Z" fill="#A6A6A6"/>
<path d="M128.54 23.8174C126.911 23.8174 125.537 23.2473 124.451 22.1251C123.374 21.0343 122.772 19.5306 122.799 17.9954C122.799 16.357 123.356 14.97 124.451 13.8702C125.533 12.7481 126.906 12.178 128.536 12.178C130.147 12.178 131.521 12.7481 132.625 13.8702C133.72 15.0059 134.277 16.3929 134.277 17.9954C134.259 19.6383 133.702 21.0254 132.625 22.1206C131.543 23.2518 130.17 23.8174 128.54 23.8174ZM80.057 23.8174C78.4635 23.8174 77.081 23.2563 75.9498 22.1476C74.8276 21.0433 74.2576 19.6473 74.2576 17.9999C74.2576 16.3525 74.8276 14.9565 75.9498 13.8523C77.0585 12.7436 78.4411 12.1825 80.057 12.1825C80.8471 12.1825 81.6146 12.3396 82.3508 12.6583C83.0735 12.968 83.6615 13.3899 84.0969 13.9062L84.2046 14.0363L82.9882 15.2303L82.8625 15.0822C82.1757 14.2653 81.2555 13.8658 80.0391 13.8658C78.9528 13.8658 78.0057 14.2518 77.2246 15.0149C76.4391 15.7825 76.0396 16.788 76.0396 18.0044C76.0396 19.2209 76.4391 20.2264 77.2246 20.9939C78.0057 21.757 78.9528 22.1431 80.0391 22.1431C81.1972 22.1431 82.1712 21.757 82.9298 20.9939C83.3787 20.5451 83.657 19.9166 83.7558 19.1221H79.855V17.4433H85.4301L85.4525 17.5959C85.4929 17.8787 85.5333 18.1705 85.5333 18.4398C85.5333 19.9885 85.0665 21.2408 84.1418 22.1655C83.0914 23.2608 81.7179 23.8174 80.057 23.8174ZM144.52 23.5795H142.801L137.536 15.154L137.58 16.6712V23.575H135.861V12.4204H137.823L137.877 12.5057L142.828 20.4418L142.783 18.9291V12.4204H144.52V23.5795V23.5795ZM115.621 23.5795H113.88V14.0992H110.859V12.4204H118.638V14.0992H115.617V23.5795H115.621ZM109.44 23.5795H107.703V12.4204H109.44V23.5795ZM99.6774 23.5795H97.9402V14.0992H94.9193V12.4204H102.698V14.0992H99.6774V23.5795ZM93.8196 23.5615H87.1583V12.4204H93.8196V14.0992H88.8999V17.1605H93.3393V18.8214H88.8999V21.8827H93.8196V23.5615ZM125.726 20.9715C126.502 21.7481 127.445 22.1386 128.54 22.1386C129.667 22.1386 130.587 21.757 131.355 20.9715C132.118 20.2084 132.504 19.2074 132.504 17.9999C132.504 16.7924 132.118 15.787 131.359 15.0284C130.583 14.2518 129.635 13.8613 128.545 13.8613C127.418 13.8613 126.498 14.2428 125.735 15.0284C124.972 15.7914 124.586 16.7924 124.586 17.9999C124.586 19.2074 124.967 20.2129 125.726 20.9715Z" fill="white"/>
<path fill-rule="evenodd" clip-rule="evenodd" d="M122.637 39.1602C118.396 39.1602 114.957 42.3787 114.957 46.8181C114.957 51.2171 118.418 54.4759 122.637 54.4759C126.879 54.4759 130.318 51.235 130.318 46.8181C130.318 42.3787 126.879 39.1602 122.637 39.1602ZM122.637 51.4415C120.317 51.4415 118.319 49.5203 118.319 46.8001C118.319 44.0395 120.321 42.1587 122.637 42.1587C124.958 42.1587 126.956 44.0395 126.956 46.8001C126.96 49.5383 124.958 51.4415 122.637 51.4415ZM105.881 39.1602C101.639 39.1602 98.2006 42.3787 98.2006 46.8181C98.2006 51.2171 101.661 54.4759 105.881 54.4759C110.123 54.4759 113.561 51.235 113.561 46.8181C113.561 42.3787 110.118 39.1602 105.881 39.1602ZM105.881 51.4415C103.56 51.4415 101.563 49.5203 101.563 46.8001C101.563 44.0395 103.565 42.1587 105.881 42.1587C108.202 42.1587 110.199 44.0395 110.199 46.8001C110.199 49.5383 108.202 51.4415 105.881 51.4415ZM85.9418 41.4989V44.7397H93.7208C93.4829 46.5577 92.8814 47.8998 91.9612 48.82C90.8211 49.9602 89.0615 51.1991 85.9597 51.1991C81.1792 51.1991 77.4401 47.3388 77.4401 42.5582C77.4401 37.7777 81.1792 33.9173 85.9597 33.9173C88.5408 33.9173 90.4216 34.9363 91.8176 36.238L94.1158 33.9397C92.1767 32.0814 89.5956 30.6584 85.9777 30.6584C79.4196 30.6584 73.9164 36.0001 73.9164 42.5402C73.9164 49.0984 79.4151 54.422 85.9777 54.422C89.5193 54.422 92.1767 53.2639 94.2774 51.0824C96.4186 48.9412 97.0964 45.9203 97.0964 43.4829C97.0964 42.7243 97.038 42.042 96.9168 41.4629H85.9373C85.9418 41.4585 85.9418 41.4989 85.9418 41.4989ZM167.498 44.0215C166.856 42.3023 164.917 39.1422 160.94 39.1422C156.999 39.1422 153.722 42.244 153.722 46.8001C153.722 51.1003 156.963 54.458 161.322 54.458C164.823 54.458 166.861 52.3168 167.7 51.06L165.101 49.3183C164.239 50.5976 163.041 51.437 161.339 51.437C159.62 51.437 158.417 50.656 157.618 49.1163L167.857 44.8744C167.857 44.8789 167.498 44.0215 167.498 44.0215ZM157.057 46.5801C156.976 43.622 159.355 42.1183 161.057 42.1183C162.399 42.1183 163.517 42.7782 163.898 43.7388L157.057 46.5801ZM148.74 54.0001H152.102V31.5023H148.74V54.0001ZM143.218 40.8614H143.097C142.339 39.9592 140.898 39.1422 139.057 39.1422C135.237 39.1422 131.718 42.5043 131.718 46.8225C131.718 51.1228 135.219 54.4445 139.057 54.4445C140.875 54.4445 142.339 53.623 143.097 52.7028H143.218V53.8026C143.218 56.7248 141.656 58.3004 139.138 58.3004C137.078 58.3004 135.798 56.8191 135.278 55.5801L132.356 56.8011C133.195 58.8211 135.435 61.3213 139.134 61.3213C143.075 61.3213 146.414 59.0006 146.414 53.3403V39.6001H143.236V40.8614C143.241 40.8614 143.218 40.8614 143.218 40.8614ZM139.358 51.4415C137.037 51.4415 135.098 49.5023 135.098 46.8225C135.098 44.1203 137.037 42.1632 139.358 42.1632C141.656 42.1632 143.438 44.1427 143.438 46.8225C143.461 49.5023 141.661 51.4415 139.358 51.4415ZM183.24 31.5023H175.201V54.0001H178.563V45.4804H183.245C186.966 45.4804 190.624 42.7826 190.624 38.5003C190.624 34.218 186.979 31.5023 183.24 31.5023ZM183.339 42.3383H178.558V34.6176H183.339C185.857 34.6176 187.28 36.6959 187.28 38.4779C187.28 40.242 185.839 42.3383 183.339 42.3383ZM204.099 39.1198C201.658 39.1198 199.139 40.2016 198.098 42.5582L201.078 43.7971C201.72 42.5582 202.896 42.1363 204.14 42.1363C205.881 42.1363 207.641 43.1777 207.681 45.036V45.2739C207.08 44.9328 205.76 44.4121 204.18 44.4121C200.962 44.4121 197.698 46.1717 197.698 49.4709C197.698 52.4919 200.338 54.431 203.278 54.431C205.536 54.431 206.779 53.4121 207.556 52.2315H207.677V53.9732H210.918V45.3547C210.918 41.3417 207.937 39.1198 204.099 39.1198ZM203.677 51.4415C202.578 51.4415 201.038 50.9028 201.038 49.5203C201.038 47.7787 202.959 47.1188 204.598 47.1188C206.079 47.1188 206.779 47.4375 207.659 47.8774C207.417 49.8974 205.711 51.4235 203.677 51.4415ZM222.741 39.6001L218.881 49.3587H218.76L214.76 39.6001H211.142L217.144 53.2415L213.723 60.823H217.225L226.458 39.6001H222.741ZM192.478 54.0001H195.84V31.5023H192.478V54.0001Z" fill="white"/>
<path fill-rule="evenodd" clip-rule="evenodd" d="M18.781 13.5607C18.2603 14.1217 17.9595 14.9791 17.9595 16.1013V55.9033C17.9595 57.0255 18.2603 57.8828 18.7989 58.4215L18.9381 58.5427L41.2382 36.2424V35.7442L18.9201 13.4395L18.781 13.5607Z" fill="url(#paint0_linear)"/>
<path fill-rule="evenodd" clip-rule="evenodd" d="M48.6581 43.6983L41.2203 36.2604V35.7397L48.6581 28.3018L48.8197 28.4005L57.6177 33.401C60.1359 34.8195 60.1359 37.1626 57.6177 38.599L48.8197 43.5995L48.6581 43.6983Z" fill="url(#paint1_linear)"/>
<path fill-rule="evenodd" clip-rule="evenodd" d="M48.8198 43.5995L41.2203 36L18.781 58.4394C19.6025 59.3192 20.9805 59.418 22.5202 58.5606L48.8198 43.5995Z" fill="url(#paint2_linear)"/>
<path fill-rule="evenodd" clip-rule="evenodd" d="M48.8198 28.4006L22.5202 13.462C20.9805 12.5822 19.598 12.7034 18.781 13.5832L41.2203 36.0001L48.8198 28.4006Z" fill="url(#paint3_linear)"/>
<path opacity="0.2" fill-rule="evenodd" clip-rule="evenodd" d="M48.6581 43.438L22.538 58.2779C21.0792 59.1173 19.7774 59.0589 18.938 58.2958L18.7989 58.435L18.938 58.5562C19.7774 59.3148 21.0792 59.3776 22.538 58.5382L48.8377 43.5996L48.6581 43.438Z" fill="black"/>
<path opacity="0.12" fill-rule="evenodd" clip-rule="evenodd" d="M57.6177 38.3387L48.6357 43.4379L48.7973 43.5995L57.5952 38.599C58.8566 37.8808 59.476 36.9382 59.476 36C59.3997 36.8618 58.7578 37.6788 57.6177 38.3387Z" fill="black"/>
<path opacity="0.25" fill-rule="evenodd" clip-rule="evenodd" d="M22.5201 13.7221L57.6177 33.6613C58.7579 34.3032 59.3998 35.1426 59.4985 35.9999C59.4985 35.0618 58.8791 34.1191 57.6177 33.4009L22.5201 13.4618C20.0019 12.0209 17.9595 13.2239 17.9595 16.1012V16.3615C17.9595 13.4797 20.0019 12.2992 22.5201 13.7221Z" fill="white"/>
<defs>
<linearGradient id="paint0_linear" x1="39.238" y1="15.6719" x2="3.51694" y2="25.1897" gradientUnits="userSpaceOnUse">
<stop stop-color="#00A0FF"/>
<stop offset="0.00657" stop-color="#00A1FF"/>
<stop offset="0.2601" stop-color="#00BEFF"/>
<stop offset="0.5122" stop-color="#00D2FF"/>
<stop offset="0.7604" stop-color="#00DFFF"/>
<stop offset="1" stop-color="#00E3FF"/>
</linearGradient>
<linearGradient id="paint1_linear" x1="60.9016" y1="36.0001" x2="17.3475" y2="36.0001" gradientUnits="userSpaceOnUse">
<stop stop-color="#FFE000"/>
<stop offset="0.4087" stop-color="#FFBD00"/>
<stop offset="0.7754" stop-color="#FFA500"/>
<stop offset="1" stop-color="#FF9C00"/>
</linearGradient>
<linearGradient id="paint2_linear" x1="44.6875" y1="40.1352" x2="16.0107" y2="88.4005" gradientUnits="userSpaceOnUse">
<stop stop-color="#FF3A44"/>
<stop offset="1" stop-color="#C31162"/>
</linearGradient>
<linearGradient id="paint3_linear" x1="13.1306" y1="0.321972" x2="25.9244" y2="21.878" gradientUnits="userSpaceOnUse">
<stop stop-color="#32A071"/>
<stop offset="0.0685" stop-color="#2DA771"/>
<stop offset="0.4762" stop-color="#15CF74"/>
<stop offset="0.8009" stop-color="#06E775"/>
<stop offset="1" stop-color="#00F076"/>
</linearGradient>
</defs>
</svg>
